<svg width="32" height="32" viewBox="0 0 32 32" fill="none" xmlns="http://www.w3.org/2000/svg">
<path d="M23.6133 15.0533C23.7383 15.1773 23.8375 15.3248 23.9052 15.4872C23.9729 15.6497 24.0077 15.824 24.0077 16C24.0077 16.176 23.9729 16.3503 23.9052 16.5128C23.8375 16.6752 23.7383 16.8227 23.6133 16.9467L12.9467 27.6133C12.8227 27.7383 12.6752 27.8375 12.5128 27.9052C12.3503 27.9729 12.176 28.0077 12 28.0077C11.824 28.0077 11.6497 27.9729 11.4872 27.9052C11.3248 27.8375 11.1773 27.7383 11.0533 27.6133C10.9284 27.4894 10.8292 27.3419 10.7615 27.1794C10.6938 27.017 10.6589 26.8427 10.6589 26.6667C10.6589 26.4906 10.6938 26.3164 10.7615 26.1539C10.8292 25.9914 10.9284 25.844 11.0533 25.72L20.7867 16L11.0533 6.28C10.8023 6.02893 10.6612 5.6884 10.6612 5.33333C10.6612 4.97826 10.8023 4.63774 11.0533 4.38667C11.3044 4.1356 11.6449 3.99454 12 3.99454C12.3551 3.99454 12.6956 4.1356 12.9467 4.38667L23.6133 15.0533Z" fill="white"/>
<rect x="0.5" y="0.5" width="31" height="31" rx="7.5" stroke="#868686"/>
</svg>
