<svg width="32" height="32" viewBox="0 0 32 32" fill="none" xmlns="http://www.w3.org/2000/svg">
<path d="M20.9466 25.72C21.0716 25.844 21.1707 25.9914 21.2384 26.1539C21.3061 26.3164 21.341 26.4906 21.341 26.6667C21.341 26.8427 21.3061 27.017 21.2384 27.1794C21.1707 27.3419 21.0716 27.4894 20.9466 27.6133C20.8226 27.7383 20.6752 27.8375 20.5127 27.9052C20.3502 27.9729 20.1759 28.0077 19.9999 28.0077C19.8239 28.0077 19.6496 27.9729 19.4871 27.9052C19.3247 27.8375 19.1772 27.7383 19.0533 27.6133L8.38659 16.9467C8.26161 16.8227 8.16242 16.6752 8.09473 16.5128C8.02704 16.3503 7.99219 16.176 7.99219 16C7.99219 15.824 8.02704 15.6497 8.09473 15.4872C8.16242 15.3248 8.26161 15.1773 8.38659 15.0533L19.0533 4.38667C19.3043 4.1356 19.6448 3.99454 19.9999 3.99454C20.1757 3.99454 20.3498 4.02917 20.5123 4.09645C20.6747 4.16373 20.8223 4.26235 20.9466 4.38667C21.0709 4.51099 21.1695 4.65857 21.2368 4.821C21.3041 4.98343 21.3387 5.15752 21.3387 5.33333C21.3387 5.50915 21.3041 5.68324 21.2368 5.84567C21.1695 6.0081 21.0709 6.15568 20.9466 6.28L11.2133 16L20.9466 25.72Z" fill="white"/>
<rect x="0.5" y="0.5" width="31" height="31" rx="7.5" stroke="#868686"/>
</svg>
